mastitorrents.com
 
http://mastitorrents.com/forums/index.php

General

Ripper                           : Rahul
Complete name                    : Anamika - The Untold Story (2008) 
Format                           : AVI
Format/Info                      : Audio Video Interleave
File size                        : 1.46 GiB
Duration                         : 2h 17mn
Overall bit rate                 : 1 518 Kbps
Writing application              : VirtualDubMod 1.5.10.2 (build 2540/release)
Writing library                  : VirtualDubMod build 2540/release

Video
ID                               : 0
Format                           : MPEG-4 Visual
Format profile                   : Advanced Simple@L5
Format settings, BVOP            : Yes
Format settings, QPel            : No
Format settings, GMC             : No warppoints
Format settings, Matrix          : Default (H.263)
Muxing mode                      : Packed bitstream
Codec ID                         : XVID
Codec ID/Hint                    : XviD
Duration                         : 2h 17mn
Bit rate                         : 1 060 Kbps
Width                            : 688 pixels
Height                           : 304 pixels
Display aspect ratio             : 2.25:1
Frame rate                       : 23.976 fps
Resolution                       : 8 bits
Colorimetry                      : 4:2:0
Scan type                        : Progressive
Bits/(Pixel*Frame)               : 0.211
Stream size                      : 1.02 GiB (70%)
Writing library                  : XviD 1.1.2 (UTC 2006-11-01)

Audio
ID                               : 1
Format                           : AC-3
Format/Info                      : Audio Coding 3
Codec ID                         : 2000
Duration                         : 2h 17mn
Bit rate mode                    : Constant
Bit rate                         : 448 Kbps
Channel(s)                       : 6 channels
Channel positions                : Front: L C R, Surround: L R, LFE
Sampling rate                    : 48.0 KHz
Stream size                      : 441 MiB (30%)
Alignment                        : Split accross interleaves
Interleave, duration             : 42 ms (1.00 video frame)
Interleave, preload duration     : 500 ms

Screenshots

 
http://img837.imageshack.us/img837/4326/2a78nlsjpg.png 
http://img829.imageshack.us/img829/2576/2z9jxpjjpg.png 
http://img832.imageshack.us/img832/6853/2zdrlsgjpg.png 
http://img829.imageshack.us/img829/2326/34rdoq1jpg.png 
http://img843.imageshack.us/img843/484/bg43k6jpg.png 
http://img838.imageshack.us/img838/4841/oi8zkgjpg.png